<?xml version="1.0" encoding="utf-8"?>
<!-- Generator: Adobe Illustrator 22.1.0, SVG Export Plug-In . SVG Version: 6.00 Build 0)  -->
<svg version="1.1" id="Capa_1" xmlns="http://www.w3.org/2000/svg" xmlns:xlink="http://www.w3.org/1999/xlink" x="0px" y="0px"
	 viewBox="0 0 100 100" style="enable-background:new 0 0 100 100;" xml:space="preserve">
<style type="text/css">
	.st0{fill:#FFFFFF;}
</style>
<g>
	<path class="st0" d="M74.6,83.5c-10-0.5-17.9-3.8-23.3-12c-1.1-1.6-0.9-2.4,0.8-3.2c2.6-1.3,5.1-2.8,7.5-4.4
		c1.3-0.9,1.9-0.6,2.8,0.6c4.1,5.8,9.9,8,16.1,6.3c2.8-0.8,5.1-2.2,5.6-5.4c0.5-3.2-1-5.4-3.7-7c-3.1-1.9-6.4-3.1-9.7-4.5
		c-3.5-1.5-6.9-3.2-9.8-5.7c-6.3-5.5-8-12.5-5.7-20.3c2.2-7.6,7.9-11.4,15.4-12.5c8.9-1.2,16.7,0.7,22.2,8.6c1,1.5,1.2,2.3-0.6,3.3
		c-2.4,1.3-4.7,2.8-6.9,4.4c-1.4,1-2.1,1-3.1-0.5c-2.3-3.5-5.7-4.8-9.5-3.9c-2.3,0.5-3.9,1.8-4.5,4.1c-0.6,2.3-0.2,4.6,1.7,6.3
		c1.8,1.6,4,2.5,6.1,3.5c4.5,2,9,3.7,13.1,6.5c7.6,5.1,10.6,13,8.3,21.9c-1.8,6.8-6.5,10.6-12.9,12.7C81.1,83.3,77.6,83.6,74.6,83.5
		z"/>
	<path class="st0" d="M42.7,41.1c0,7.5,0.1,15,0,22.4c-0.2,12.2-6.5,19-18.6,19.9C15,84.1,7.5,81,2.6,72.9c-0.8-1.3-1-2.1,0.7-3
		c2.7-1.4,5.3-3,7.8-4.7c1.4-0.9,1.9-0.7,2.7,0.7c2.8,4.7,5.8,6.1,10.1,5.2c2.5-0.5,4-2.1,4.6-4.5c0.4-1.6,0.5-3.2,0.5-4.8
		c0-14.6,0-29.1,0-43.7c0-1.8,0.4-2.4,2.3-2.3c3.1,0.2,6.3,0.1,9.4,0c1.7-0.1,2.2,0.3,2.2,2.1C42.7,25.6,42.8,33.3,42.7,41.1
		C42.8,41.1,42.7,41.1,42.7,41.1z"/>
</g>
</svg>
